<svg id="Lag_1" data-name="Lag 1" xmlns="http://www.w3.org/2000/svg" width="1093.32" height="780" viewBox="0 0 1093.32 780"><defs><style>.cls-1,.cls-2,.cls-3,.cls-4,.cls-5{fill:none;}.cls-1{stroke:#a4b6ba;stroke-width:8px;}.cls-2,.cls-5{stroke:#dda542;}.cls-2{stroke-width:12px;}.cls-3,.cls-4{stroke:#dd9797;}.cls-3,.cls-4,.cls-5{stroke-width:15px;}.cls-4{stroke-miterlimit:10;}</style></defs><title>logo</title><path class="cls-1" d="M227,322.58a134.32,134.32,0,0,0-18.93,1.47q-10.17,1.49-20,3.15c-4.67.84-9.17,1.55-13.49,2.1s-8.24,1-11.75,1.26q-2.44,9.24-4.9,16.38t-5.26,13.86q-2.82,7.14-5.09,14.48T143.24,391q-3.51,6.72-5.78,12.39a70.71,70.71,0,0,0-3.68,12.81,49.63,49.63,0,0,0-6.31,13.22q-2.1,6.93-3.16,12l-1.4,5a11.28,11.28,0,0,0-2.45,4,5.4,5.4,0,0,1-1.75,2.73,27.38,27.38,0,0,1-2.46,9.24,28.88,28.88,0,0,0-1,4,16.31,16.31,0,0,0-.35,2.73c0,2.8-.59,4.62-1.75,5.46a14.17,14.17,0,0,1,0,4.41c-.24,1.54-.47,3-.7,4.4a26,26,0,0,0-.71,8c.71,1.13,1.35,2.1,1.93,2.94a8.37,8.37,0,0,1,1.23,3.36,14.39,14.39,0,0,0,3.15,2.1,27.81,27.81,0,0,0,4.21,2.94l3.16,4.2q1.74,12.18-3.16,19.32-5.25,8-17.88,8h-4.2A10.2,10.2,0,0,1,98,530.87c-1.87-.84-3.39-1.55-4.55-2.1a7.62,7.62,0,0,1-3.16-3.36q-4.56-2.52-7.36-4.2l-3.15-2.1v-5a28.93,28.93,0,0,1-3.69-8.4,83.81,83.81,0,0,1-1.92-9.24c-.47-2.52-1-4.89-1.58-7.14a25.74,25.74,0,0,0-2.28-5.88q-.7-24.35,3.86-41.15t9.46-32.33q2.8-8.4,5.61-17t4.91-17.84l3.15-4.2q2.45-6.72,4-11.13t3.33-9c.7-2,1.35-3.85,1.93-5.67s1.11-3.42,1.58-4.83a32.68,32.68,0,0,0-3.86.21,35.19,35.19,0,0,0-3.5.63c-1.4.28-2.69.49-3.86.63a27.51,27.51,0,0,1-3.5.21,10.38,10.38,0,0,1-3.51-.42,17.21,17.21,0,0,1-8.41,2.1H78a7.77,7.77,0,0,1-1.93-.21,6.8,6.8,0,0,0-1.57-.21,10.84,10.84,0,0,0-5.61,1.26H57.36a9.2,9.2,0,0,0-1.75.21,8.53,8.53,0,0,1-1.75.21,24,24,0,0,1-5.26-.63,17.78,17.78,0,0,1-6-2.73C39.83,337,38,334.62,37,334.34l-3.16-5a31.11,31.11,0,0,0-1-4.83c-.47-1.53-.93-3.28-1.4-5.24-.94-2.8-1.81-5.81-2.63-9a47.31,47.31,0,0,1-1.23-11.55,12,12,0,0,1,1.41-5c.7-1.12,1.28-2.1,1.75-2.94l1.05-6.3,4.56.42h9.81q11.22,0,22.79-1.05t23.84-2.31L107,279.75l14.9-1.68c.93-2.52,1.87-4.89,2.8-7.14l3.51-2.1q6.32-.4,8.94,1.89a43,43,0,0,1,4.38,4.41q7.71-.83,15.6-1.89T173,270.51q11.91-2.08,24-3.77a169.42,169.42,0,0,1,23.31-1.68q4.9,0,9.47.42a69.83,69.83,0,0,1,8.41,1.26l3.51,2.93a15.55,15.55,0,0,0,3,4.62q1.92,2.11,4,4.2a94.51,94.51,0,0,1,8.41,10.92q4.2,6.3,3.15,18.48-2.81,5-4.2,5.88l-3.16,5-3.5-.42a11.37,11.37,0,0,0-3.86.63,36.15,36.15,0,0,0-3.5,1.47,28,28,0,0,1-2.81,1.46,17.11,17.11,0,0,1-3.15,1.05,46.46,46.46,0,0,1-5.09-.21A39.75,39.75,0,0,0,227,322.58Z"/><path class="cls-1" d="M404.57,489.29a73,73,0,0,1-6.13,14.49,61.49,61.49,0,0,1-9.47,13,52.69,52.69,0,0,1-12.09,9.45,31.9,31.9,0,0,1-14,4.2c-3-.84-5.09-1.76-6.14-2.73a32.21,32.21,0,0,0-3.33-2.73c-.7-.56-1.35-1-1.93-1.47s-1.11-.77-1.57-1l-4.21-2.1,1.4-5.46a7.6,7.6,0,0,0-.35-5.25,30.76,30.76,0,0,0-4.2-5.25l-2.11-2.52a15.94,15.94,0,0,1-1.75-2.52l-6-8,9.46-2.94q8.76-2.93,11.75-7.55t2.28-15.54q-7-1.68-11.75-.42t-9.64,2.94q-6.3,2.1-12.79,3.57a64.31,64.31,0,0,1-14.2,1.47c-1.87,0-3.62-.07-5.26-.21s-3.39-.35-5.25-.63l-3.51-.84q-.71-4.62-1.4-5.25a13.24,13.24,0,0,1-1.4-1.47,33.64,33.64,0,0,1-3.68-5.67q-1.94-3.57-.88-9a23.08,23.08,0,0,1-2.11-7.56,53.69,53.69,0,0,0-3.15,10.5l-1.4,4.2-3.51.84a2.86,2.86,0,0,0-1,1.89,10.86,10.86,0,0,0-.35,2.31l-1.75,7.14a15.37,15.37,0,0,1-1.4,1.47,13.29,13.29,0,0,0-1.41,1.47q-.71,3.78-1.75,7.56t-2.1,7.13q-1.77,5.48-3,10.71a34.59,34.59,0,0,0-.88,10.29l-1.4,4.62a15.68,15.68,0,0,1-3.86,4q-2.1,1.47-4.2,2.73a6.11,6.11,0,0,1-1.93,1.47c-.82.42-1.46.77-1.93,1l-1.05,4.62-4.21.84q-3.86.82-5.43,1.26a14.85,14.85,0,0,1-3.68.42l-3.51-.42q-3.85-3.78-6-6.09a35.23,35.23,0,0,0-4.9-4.41c-2.11-3.36-3.27-5.88-3.51-7.56s-.46-3.21-.7-4.62a26.68,26.68,0,0,1-.88-4.2,4.63,4.63,0,0,0-.87-2.52l-4.56-5,3.86-3.78.35-7.14q7-21.4,14.89-41.15t16.3-40.31q2.81-6.7,5.44-13.44t5.43-13.43a11.18,11.18,0,0,1-.35-2.94,12,12,0,0,1,.7-3.78q3.86-7.14,6.31-12.81t4.91-11.55q2.81-7.14,5.78-13.86a105.8,105.8,0,0,1,7.54-13.85l5.61-2.94c.7-.28,1.52-.63,2.45-1.05a7.62,7.62,0,0,1,3.16-.63l5.26.84a54.45,54.45,0,0,0,17.17-15.33A213.69,213.69,0,0,0,329.91,273l3.5-5.87,4.56,3.35a18.05,18.05,0,0,0,4.91,2.31c2.1.71,4.32,1.47,6.66,2.31q6.3,1.69,11.91,3.78a21.56,21.56,0,0,1,9.12,6.3A57.28,57.28,0,0,1,373,295.29a65.07,65.07,0,0,0,1.05,6.72q1.06,7.14,1.93,14.28t1.23,15.95c1.17,4.77,2.16,9.45,3,14.07s1.58,9.31,2.28,14.07q1.74,10.08,3.5,19.52a133,133,0,0,0,4.56,17.85,8.83,8.83,0,0,1,3.5.42,16.74,16.74,0,0,1,3.69-1.26c1.28-.27,2.74-.56,4.38-.84l3.85-.42,1.41,4.2q.35,2.1,3.5,4.2,4.56.42,6.66,2.31a39.16,39.16,0,0,1,3.86,4,11.38,11.38,0,0,0,2.8,2.52l5.26,2.52-2.81,6.3a55,55,0,0,1-10,14.48,62.18,62.18,0,0,1-14.54,11.55c.23,1.68.4,3.3.52,4.83a25.2,25.2,0,0,0,.88,4.83q1.05,7.14,1.75,14.7a85.69,85.69,0,0,1,0,15.53ZM303.26,416.65q10.53-.84,19.11-1.89a172.87,172.87,0,0,0,19.1-3.57q-2.45-12.6-5.25-26.25t-6-27.08l-2.11,4.2a177.43,177.43,0,0,0-13.49,19.73q-6.5,10.93-11.05,20.58l-4.2,7.56q-2.1,3.78-3.86,7.56a20.6,20.6,0,0,1,4-.42A15.78,15.78,0,0,0,303.26,416.65Z"/><path class="cls-1" d="M610.86,525.41A82.75,82.75,0,0,1,597,525a25.87,25.87,0,0,0-15.25,2.94,202.88,202.88,0,0,1-37.86-5.46,233.11,233.11,0,0,1-35.4-11.34c-2.34-3.08-4.68-5.94-7-8.61a19.11,19.11,0,0,0-9.46-5.67,61.63,61.63,0,0,1-13.67-19.52A136.42,136.42,0,0,1,470,452.76a166.61,166.61,0,0,1-4.21-26.66,252.37,252.37,0,0,1-.7-26.25q5.25-18.9,14.9-32.54t19.8-27.09a23.7,23.7,0,0,0,6.84-5.25,46.77,46.77,0,0,1,4.91-5l5.25-4.62a25.2,25.2,0,0,0,4.74-5.66,40,40,0,0,0,12.79-6.09q5.43-4,10.69-8.4A130.39,130.39,0,0,1,555.83,297a45.08,45.08,0,0,1,13-5.88,22.93,22.93,0,0,1,6.66-6.09c2.57-1.53,5.2-3.08,7.89-4.62s5.26-3.15,7.71-4.83a17.37,17.37,0,0,0,5.78-6.72q1.75,3.38,4.91,2.31a61.1,61.1,0,0,0,6-2.31,3,3,0,0,1,3,.84c.81.84,1.58,1.68,2.28,2.52a3.94,3.94,0,0,0,1.93,1.47c.58.15,1.1-.48,1.57-1.89,1.17,0,1.52.71,1,2.1s-.82,2.39-1,2.94a5.3,5.3,0,0,1,4.73,1.47c1.29,1.26,3.33,2,6.14,2.31.93,1.41,1.17,2.46.7,3.15a6.7,6.7,0,0,0-.7,3.57q10.51,3.78,13.32,12a28.16,28.16,0,0,1,.35,17,43.86,43.86,0,0,1-8.76,16.37q-6.32,7.56-13.67,10.08-16.83,5.46-31.73,12a59.87,59.87,0,0,0-24.36,19.11,55.48,55.48,0,0,0-14.9,7.76,97.39,97.39,0,0,0-12.27,10.92q-5.77,6.09-10.86,12.6t-10.7,12.81q.35,5.88-1.57,9c-1.29,2.09-2.52,4.27-3.68,6.5A47.81,47.81,0,0,0,511,444.57q1.76,4.83,3.86,9.45a187.61,187.61,0,0,0,49.25,10.5q26.1,2.1,52.4,2.52a43.36,43.36,0,0,0,5.79,7.77,70.54,70.54,0,0,1,6.13,7.56,37.67,37.67,0,0,1,4.56,8.81c1.16,3.23,1.4,7.21.7,12a85.56,85.56,0,0,1-10.87,11.55Q616.82,520,610.86,525.41Z"/><path class="cls-1" d="M891.12,398.59a33.16,33.16,0,0,0,.7,9.66,78.66,78.66,0,0,0,2.63,9q1.57,4.41,3,9a67,67,0,0,1,2.1,9.23,58.27,58.27,0,0,1,0,12.81,84.33,84.33,0,0,1-2.45,13.44,55.58,55.58,0,0,1-4.56,11.76,20.58,20.58,0,0,1-6.66,7.77,36.59,36.59,0,0,1-11.92,11.75,68.64,68.64,0,0,0-13,10.08,24.49,24.49,0,0,1-8.59,4.2q-4.74,1.26-9.64,2.52c-2.58,1.68-5.61,3.43-9.12,5.25s-7.13,3.5-10.86,5a57.16,57.16,0,0,1-11.22,3.36,35.12,35.12,0,0,1-9.82.63,80.75,80.75,0,0,1-20.5,6.09q-10,1.46-23.31-1.89a50,50,0,0,1-23.32-1.26,51.1,51.1,0,0,1-18.92-10.71,74.26,74.26,0,0,1-14.38-17.64,113.3,113.3,0,0,1-10-21.62q-2.8-23.94,1.4-43.47a164.77,164.77,0,0,1,12.1-36.11,195.87,195.87,0,0,1,18.05-30.65q10.17-14.07,19.63-27.51a3.06,3.06,0,0,0,3.33-.21,10.41,10.41,0,0,0,2.28-2.94,33.92,33.92,0,0,1,2.28-3.57,5.21,5.21,0,0,1,3-2.1,19.28,19.28,0,0,1,7.18-9.44,21.77,21.77,0,0,0,7.54-9,14.16,14.16,0,0,0,5.26-2.52,36.46,36.46,0,0,0,4-3.78c1.28-1.4,2.63-2.73,4-4a12.68,12.68,0,0,1,4.91-2.73v-4.62a25.15,25.15,0,0,0,9.29-7.77q3-4.41,7.18-10.71a42.5,42.5,0,0,1,5.09-.42,29.2,29.2,0,0,0,5.78-.84,50.55,50.55,0,0,1,5.08-8.81,34.76,34.76,0,0,1,6.84-6.3,26.17,26.17,0,0,0,9.29,3.36,14.73,14.73,0,0,1,8.94,5.45,12.23,12.23,0,0,0,2.1,6.51,29.74,29.74,0,0,0,3.86,4.2q2.1,1.89,4,4a11.75,11.75,0,0,1,2.63,5.88c.93.28,1.57.15,1.93-.42s1-.69,1.92-.42c.71,3.93,1.52,6.51,2.46,7.77s1.87,3.71,2.8,7.35a44.76,44.76,0,0,0-2.63,8.61,9.3,9.3,0,0,1-4.38,6.51c-.23,2,.23,3,1.4,3.14a2.42,2.42,0,0,1,2.11,2.31c.23,2.52-.12,4.35-1,5.46A304.08,304.08,0,0,1,876.05,364,302.92,302.92,0,0,0,891.12,398.59ZM847.3,438.48a23.58,23.58,0,0,1,3.68-7.56q2.28-2.93,2.63-8.81a20.46,20.46,0,0,1-2.1-5.25,37.7,37.7,0,0,1-.35-6.09,176.16,176.16,0,0,1-13.32-27.93,229.88,229.88,0,0,0-12.62-27.92,10.39,10.39,0,0,1-2.45,3.36c-1.18,1.12-2.46.84-3.86-.84a8.37,8.37,0,0,1-2.45,4.83,5.06,5.06,0,0,1-3.86,1.26,13.78,13.78,0,0,1-4.38-1.26,14.47,14.47,0,0,1-4-2.73Q794,369.2,783.86,378.43a112.86,112.86,0,0,0-18.23,21.42c-.94.56-1.52.77-1.76.63s-.93.07-2.1.63a74.51,74.51,0,0,1-6.83,14.49q-4,6.51-7.89,13.23a94.07,94.07,0,0,0-6.66,14.27,56.21,56.21,0,0,0-3.16,17.64,25,25,0,0,0,14,7.14,65.89,65.89,0,0,0,16.65.42,133.12,133.12,0,0,0,16.82-2.73A68.46,68.46,0,0,1,800,463.68a90.92,90.92,0,0,0,25.24-11.13Q835.74,445.62,847.3,438.48Z"/><path class="cls-2" d="M251.94,100.21A132.85,132.85,0,0,0,233,101.68q-10.17,1.48-20,3.15-7,1.26-13.49,2.1t-11.75,1.26q-2.44,9.24-4.9,16.38t-5.26,13.85q-2.81,7.16-5.08,14.49c-1.53,4.9-3,10.15-4.39,15.75q-3.49,6.72-5.78,12.39a70.83,70.83,0,0,0-3.68,12.8,49.85,49.85,0,0,0-6.31,13.23q-2.1,6.93-3.15,12l-1.41,5a11.28,11.28,0,0,0-2.45,4,5.44,5.44,0,0,1-1.75,2.73,27.27,27.27,0,0,1-2.46,9.23,29.64,29.64,0,0,0-1,4,17.61,17.61,0,0,0-.35,2.73c0,2.81-.59,4.62-1.75,5.46a14.17,14.17,0,0,1,0,4.41c-.24,1.54-.47,3-.7,4.41a25.93,25.93,0,0,0-.7,8q1,1.68,1.92,2.94a8.37,8.37,0,0,1,1.23,3.36,14.53,14.53,0,0,0,3.16,2.1,27.83,27.83,0,0,0,4.2,2.94l3.16,4.2q1.74,12.18-3.16,19.31-5.25,8-17.88,8h-4.2a10.27,10.27,0,0,1-2.11-3.36q-2.81-1.26-4.55-2.1a7.62,7.62,0,0,1-3.16-3.36c-3-1.68-5.49-3.07-7.36-4.2l-3.15-2.1v-5a28.64,28.64,0,0,1-3.68-8.4,82.07,82.07,0,0,1-1.93-9.24q-.7-3.78-1.58-7.14A25.56,25.56,0,0,0,95.25,261q-.7-24.35,3.86-41.15t9.46-32.34q2.81-8.38,5.61-17t4.91-17.85l3.15-4.2c1.64-4.47,3-8.19,4-11.13s2.16-5.94,3.33-9q1.07-2.94,1.93-5.67t1.58-4.83a32.68,32.68,0,0,0-3.86.21,30.62,30.62,0,0,0-3.5.63c-1.4.28-2.69.49-3.86.63a29.48,29.48,0,0,1-3.5.21,10.38,10.38,0,0,1-3.51-.42,17.32,17.32,0,0,1-8.41,2.1H103A8.18,8.18,0,0,1,101,121a7,7,0,0,0-1.58-.21,10.84,10.84,0,0,0-5.61,1.26H82.28a9.2,9.2,0,0,0-1.75.21,9.29,9.29,0,0,1-1.75.21,24,24,0,0,1-5.26-.63,18,18,0,0,1-6-2.73Q63.35,112.39,62,112l-3.16-5a30.86,30.86,0,0,0-1-4.83c-.47-1.53-.93-3.29-1.4-5.25-.94-2.79-1.81-5.81-2.63-9a47.21,47.21,0,0,1-1.22-11.54,12,12,0,0,1,1.4-5c.7-1.12,1.28-2.1,1.75-2.94l1-6.3,4.56.42h9.81q11.22,0,22.79-1.05t23.84-2.31l14.19-1.68q7.19-.84,14.9-1.68,1.4-3.78,2.81-7.14l3.5-2.1q6.32-.41,8.94,1.89a41.06,41.06,0,0,1,4.38,4.41q7.71-.84,15.6-1.89t16-2.73q11.91-2.1,24-3.78a171,171,0,0,1,23.31-1.68c3.27,0,6.43.15,9.47.42a69.83,69.83,0,0,1,8.41,1.26l3.51,2.94a15.68,15.68,0,0,0,3,4.62c1.28,1.4,2.63,2.8,4,4.2A92.58,92.58,0,0,1,282.09,67q4.21,6.3,3.16,18.47c-1.88,3.36-3.28,5.33-4.21,5.88l-3.16,5-3.5-.42a11.37,11.37,0,0,0-3.86.63,36.15,36.15,0,0,0-3.5,1.47,26.15,26.15,0,0,1-2.81,1.47,17.11,17.11,0,0,1-3.15,1,46.14,46.14,0,0,1-5.08-.21A37.37,37.37,0,0,0,251.94,100.21Z"/><path class="cls-2" d="M429.49,266.92a73.54,73.54,0,0,1-6.13,14.49,61.49,61.49,0,0,1-9.47,13,52.92,52.92,0,0,1-12.09,9.44,31.73,31.73,0,0,1-14,4.2q-4.56-1.26-6.14-2.73a33.56,33.56,0,0,0-3.33-2.73c-.7-.55-1.34-1.05-1.93-1.47s-1.11-.76-1.57-1.05L370.6,298l1.4-5.46a7.58,7.58,0,0,0-.35-5.24,30.37,30.37,0,0,0-4.2-5.25l-2.11-2.52a16.63,16.63,0,0,1-1.75-2.52l-6-8,9.47-2.94q8.75-2.94,11.74-7.56T381.12,243c-4.68-1.11-8.59-1.26-11.75-.42s-6.37,1.83-9.64,2.94a129,129,0,0,1-12.79,3.57,63.71,63.71,0,0,1-14.2,1.47c-1.87,0-3.62-.06-5.26-.21s-3.39-.34-5.25-.63l-3.51-.84c-.47-3.07-.94-4.83-1.4-5.24a12.54,12.54,0,0,1-1.4-1.48,33.1,33.1,0,0,1-3.68-5.66q-1.94-3.57-.88-9a22.81,22.81,0,0,1-2.1-7.56,52.84,52.84,0,0,0-3.16,10.5l-1.4,4.2-3.51.84a2.86,2.86,0,0,0-1.05,1.89,10.88,10.88,0,0,0-.35,2.3L298,246.76a14.27,14.27,0,0,1-1.4,1.47,15.37,15.37,0,0,0-1.41,1.47q-.71,3.78-1.75,7.56t-2.1,7.14q-1.75,5.46-3,10.71a34.56,34.56,0,0,0-.88,10.29l-1.4,4.62a15.68,15.68,0,0,1-3.86,4c-1.4,1-2.8,1.88-4.2,2.72a6,6,0,0,1-1.93,1.47c-.82.42-1.46.78-1.93,1.05l-1.05,4.62-4.21.84q-3.85.84-5.43,1.26a14.39,14.39,0,0,1-3.68.42l-3.51-.42c-2.57-2.52-4.55-4.54-6-6.09a36.54,36.54,0,0,0-4.9-4.41c-2.11-3.35-3.27-5.87-3.51-7.55s-.46-3.22-.7-4.62a26.68,26.68,0,0,1-.88-4.2,4.57,4.57,0,0,0-.87-2.52l-4.56-5,3.86-3.78.35-7.14q7-21.42,14.9-41.15t16.3-40.31q2.79-6.72,5.43-13.44t5.43-13.44a11.18,11.18,0,0,1-.35-2.94,12.1,12.1,0,0,1,.7-3.78c2.57-4.75,4.68-9,6.31-12.8s3.27-7.63,4.91-11.55q2.81-7.14,5.78-13.86a105.89,105.89,0,0,1,7.54-13.86l5.61-2.94c.7-.27,1.52-.63,2.45-1a7.62,7.62,0,0,1,3.16-.63l5.26.84a54.19,54.19,0,0,0,17.17-15.32,214.63,214.63,0,0,0,15.08-23.73l3.5-5.88,4.56,3.36a18.2,18.2,0,0,0,4.91,2.31q3.15,1,6.66,2.31,6.3,1.68,11.92,3.78a21.41,21.41,0,0,1,9.11,6.3,57.28,57.28,0,0,1,2.45,10.08A64.47,64.47,0,0,0,399,79.63q1.06,7.16,1.93,14.28c.58,4.77,1,10.08,1.23,16q1.75,7.14,3,14.07c.81,4.62,1.58,9.31,2.28,14.06q1.74,10.08,3.5,19.53a133,133,0,0,0,4.56,17.85,8.73,8.73,0,0,1,3.51.42,16.48,16.48,0,0,1,3.68-1.26q1.92-.42,4.38-.84l3.85-.42,1.41,4.2q.34,2.1,3.5,4.2,4.56.42,6.66,2.31a40.13,40.13,0,0,1,3.86,4,11,11,0,0,0,2.8,2.52l5.26,2.52-2.8,6.3a55.55,55.55,0,0,1-10,14.49A62.43,62.43,0,0,1,427,225.35c.23,1.68.4,3.29.52,4.83a25.2,25.2,0,0,0,.88,4.83q1.05,7.14,1.75,14.69a85.8,85.8,0,0,1,0,15.54Zm-101.3-72.65q10.51-.83,19.1-1.89a170.57,170.57,0,0,0,19.1-3.57q-2.44-12.59-5.25-26.24t-6-27.09l-2.11,4.2a176.66,176.66,0,0,0-13.49,19.74q-6.49,10.92-11,20.58l-4.21,7.55q-2.1,3.78-3.86,7.56a21.48,21.48,0,0,1,4-.42A15.35,15.35,0,0,0,328.19,194.27Z"/><path class="cls-2" d="M635.78,303a80.65,80.65,0,0,1-13.84-.42,25.94,25.94,0,0,0-15.25,2.94,201.24,201.24,0,0,1-37.86-5.46,232,232,0,0,1-35.4-11.33q-3.51-4.62-7-8.61a19.19,19.19,0,0,0-9.47-5.67A61.83,61.83,0,0,1,503.28,255a136.82,136.82,0,0,1-8.41-24.56,166.91,166.91,0,0,1-4.21-26.67,252.18,252.18,0,0,1-.7-26.24q5.25-18.9,14.9-32.55t19.8-27.08a23.88,23.88,0,0,0,6.84-5.25,45,45,0,0,1,4.91-5c1.75-1.53,3.5-3.08,5.25-4.62a25,25,0,0,0,4.74-5.67,39.7,39.7,0,0,0,12.79-6.09q5.43-4,10.69-8.4a132.5,132.5,0,0,1,10.87-8.18,45.21,45.21,0,0,1,13-5.88,22.93,22.93,0,0,1,6.66-6.09q3.86-2.31,7.89-4.62c2.68-1.54,5.26-3.15,7.71-4.83a17.44,17.44,0,0,0,5.78-6.72q1.75,3.36,4.91,2.31a61.1,61.1,0,0,0,6-2.31,3,3,0,0,1,3,.84q1.23,1.26,2.28,2.52a4,4,0,0,0,1.93,1.47c.58.15,1.1-.49,1.57-1.89q1.75,0,1.05,2.1t-1.05,2.94a5.3,5.3,0,0,1,4.74,1.47c1.28,1.26,3.33,2,6.13,2.31.93,1.4,1.17,2.45.7,3.15a6.7,6.7,0,0,0-.7,3.57q10.51,3.78,13.32,12a28.13,28.13,0,0,1,.35,17,43.83,43.83,0,0,1-8.76,16.38q-6.31,7.56-13.67,10.08-16.83,5.46-31.73,12a59.85,59.85,0,0,0-24.36,19.1,55.5,55.5,0,0,0-14.9,7.77,96.53,96.53,0,0,0-12.27,10.92q-5.78,6.09-10.86,12.6t-10.69,12.8c.22,3.93-.3,6.93-1.58,9s-2.52,4.27-3.68,6.51a47.92,47.92,0,0,0,2.45,11.13q1.75,4.83,3.86,9.45A187.29,187.29,0,0,0,589,242.14q26.1,2.12,52.4,2.52a42.66,42.66,0,0,0,5.79,7.77,70.54,70.54,0,0,1,6.13,7.56,37.94,37.94,0,0,1,4.56,8.82q1.75,4.83.7,12a85.56,85.56,0,0,1-10.87,11.55Q641.75,297.58,635.78,303Z"/><path class="cls-2" d="M916,176.22a33.07,33.07,0,0,0,.7,9.65,78.08,78.08,0,0,0,2.63,9c1,2.94,2,6,3,9a68.68,68.68,0,0,1,2.11,9.24,59.53,59.53,0,0,1,0,12.81A85.48,85.48,0,0,1,922,239.42a55.28,55.28,0,0,1-4.56,11.75,20.5,20.5,0,0,1-6.66,7.77,36.69,36.69,0,0,1-11.91,11.76,68.38,68.38,0,0,0-13,10.08,24.49,24.49,0,0,1-8.59,4.2q-4.74,1.26-9.64,2.52c-2.58,1.68-5.61,3.43-9.12,5.25s-7.13,3.5-10.86,5a55.84,55.84,0,0,1-11.22,3.36,34.38,34.38,0,0,1-9.82.63,80,80,0,0,1-20.5,6.09q-10,1.47-23.31-1.89a49.66,49.66,0,0,1-23.31-1.26A50.9,50.9,0,0,1,740.6,294a74.46,74.46,0,0,1-14.38-17.64,113.39,113.39,0,0,1-10-21.63q-2.81-23.94,1.41-43.46a164.06,164.06,0,0,1,12.09-36.11,196,196,0,0,1,18-30.66q10.17-14.06,19.63-27.5a3.08,3.08,0,0,0,3.33-.21,10.56,10.56,0,0,0,2.28-2.94,33.92,33.92,0,0,1,2.28-3.57,5.15,5.15,0,0,1,3-2.1,19.31,19.31,0,0,1,7.19-9.45,21.76,21.76,0,0,0,7.53-9,13.79,13.79,0,0,0,5.26-2.52,34.65,34.65,0,0,0,4-3.78c1.28-1.39,2.63-2.72,4-4a12.75,12.75,0,0,1,4.91-2.73V72.08a25.15,25.15,0,0,0,9.29-7.77q3-4.41,7.19-10.71a40.23,40.23,0,0,1,5.08-.42,30,30,0,0,0,5.78-.84,50.32,50.32,0,0,1,5.08-8.82,35.38,35.38,0,0,1,6.84-6.3,26.05,26.05,0,0,0,9.29,3.36A14.69,14.69,0,0,1,868.72,46a12.26,12.26,0,0,0,2.1,6.51,30.29,30.29,0,0,0,3.86,4.2q2.1,1.89,4,4a11.71,11.71,0,0,1,2.63,5.88c.93.28,1.58.14,1.93-.42s1-.7,1.92-.42c.71,3.92,1.52,6.51,2.46,7.77s1.87,3.71,2.8,7.34a45,45,0,0,0-2.63,8.61A9.25,9.25,0,0,1,883.44,96c-.23,2,.23,3,1.4,3.15a2.41,2.41,0,0,1,2.11,2.31q.34,3.78-1.05,5.46A304.7,304.7,0,0,1,901,141.57,302.32,302.32,0,0,0,916,176.22Zm-43.82,39.89a23.38,23.38,0,0,1,3.68-7.56q2.28-2.93,2.63-8.82a20.32,20.32,0,0,1-2.1-5.25,37.62,37.62,0,0,1-.35-6.09,176.5,176.5,0,0,1-13.32-27.92,230.73,230.73,0,0,0-12.62-27.93,10.18,10.18,0,0,1-2.45,3.36c-1.18,1.13-2.46.84-3.86-.84a8.31,8.31,0,0,1-2.45,4.83,5,5,0,0,1-3.86,1.26,13.28,13.28,0,0,1-4.38-1.26,14.05,14.05,0,0,1-4-2.73q-10.17,9.68-20.33,18.9a112.92,112.92,0,0,0-18.23,21.42c-.94.56-1.52.77-1.75.63s-.94.07-2.11.63a74.15,74.15,0,0,1-6.83,14.48q-4,6.53-7.89,13.23a95.16,95.16,0,0,0-6.66,14.28,56.21,56.21,0,0,0-3.16,17.64,25.06,25.06,0,0,0,14,7.13,65.43,65.43,0,0,0,16.65.42,133.11,133.11,0,0,0,16.82-2.72,68.51,68.51,0,0,1,15.25-1.9,90.62,90.62,0,0,0,25.24-11.12Q860.66,223.25,872.22,216.11Z"/><path class="cls-3" d="M229.62,557.25a152.88,152.88,0,0,0-20.32,1.47q-10.91,1.49-21.44,3.15-7.53,1.26-14.48,2.1c-4.65.57-8.84,1-12.61,1.26q-2.62,9.24-5.26,16.38t-5.65,13.86q-3,7.14-5.45,14.48t-4.7,15.75a135,135,0,0,0-6.21,12.39,67.29,67.29,0,0,0-3.95,12.81,48,48,0,0,0-6.77,13.22c-1.51,4.62-2.63,8.61-3.39,12l-1.5,5a11.15,11.15,0,0,0-2.64,4,5.36,5.36,0,0,1-1.88,2.73,25.8,25.8,0,0,1-2.63,9.24,27,27,0,0,0-1.13,4,15.84,15.84,0,0,0-.37,2.73c0,2.8-.63,4.61-1.89,5.45a13.05,13.05,0,0,1,0,4.41q-.37,2.33-.75,4.41a24.48,24.48,0,0,0-.75,8q1.13,1.68,2.07,2.94a8.1,8.1,0,0,1,1.32,3.36,16,16,0,0,0,3.38,2.1,29.62,29.62,0,0,0,4.52,2.94l3.38,4.2q1.88,12.18-3.38,19.31-5.65,8-19.19,8H93.44a10,10,0,0,1-2.26-3.36q-3-1.26-4.89-2.1a7.9,7.9,0,0,1-3.39-3.35q-4.89-2.52-7.9-4.2l-3.39-2.1v-5a28.19,28.19,0,0,1-4-8.4,80.61,80.61,0,0,1-2.06-9.24c-.51-2.52-1.07-4.89-1.7-7.14a24.34,24.34,0,0,0-2.44-5.88q-.76-24.35,4.14-41.15T75.75,644.6q3-8.4,6-17T87,609.74l3.39-4.2q2.63-6.7,4.32-11.12t3.57-9q1.14-2.94,2.07-5.67c.63-1.82,1.19-3.43,1.7-4.83a37.39,37.39,0,0,0-4.14.21,34.7,34.7,0,0,0-3.76.63q-2.26.42-4.14.63a34,34,0,0,1-3.76.21,11.85,11.85,0,0,1-3.76-.42,19.73,19.73,0,0,1-9,2.1H69.73a9.55,9.55,0,0,1-2.07-.21,7.78,7.78,0,0,0-1.69-.21,12.35,12.35,0,0,0-6,1.26H47.54a10.52,10.52,0,0,0-1.88.21,10.71,10.71,0,0,1-1.88.21,27.68,27.68,0,0,1-5.65-.63,20,20,0,0,1-6.39-2.73q-4.51-6.72-6-7.14l-3.39-5a29.84,29.84,0,0,0-1.13-4.83q-.75-2.29-1.5-5.25-1.51-4.18-2.82-9a44.23,44.23,0,0,1-1.32-11.55,11.35,11.35,0,0,1,1.51-5c.75-1.12,1.37-2.1,1.88-2.94l1.13-6.3,4.89.42H35.5q12,0,24.45-1.05t25.58-2.31l15.24-1.68c5.14-.56,10.47-1.11,16-1.68,1-2.52,2-4.89,3-7.14l3.76-2.1q6.78-.4,9.59,1.89a43,43,0,0,1,4.71,4.41q8.26-.84,16.74-1.89t17.11-2.73q12.8-2.1,25.77-3.78a196.87,196.87,0,0,1,25-1.68c3.51,0,6.9.15,10.16.42a85.15,85.15,0,0,1,9,1.26l3.76,2.94a15.67,15.67,0,0,0,3.2,4.62c1.37,1.41,2.82,2.8,4.32,4.2a93.71,93.71,0,0,1,9,10.92q4.51,6.3,3.39,18.48c-2,3.35-3.52,5.32-4.52,5.87l-3.38,5-3.76-.42a12.94,12.94,0,0,0-4.14.63c-1.26.42-2.51.92-3.76,1.47a29.7,29.7,0,0,1-3,1.47,19.6,19.6,0,0,1-3.39,1,53.43,53.43,0,0,1-5.46-.21C232.56,557.33,231.12,557.25,229.62,557.25Z"/><path class="cls-3" d="M420.16,724a70.34,70.34,0,0,1-6.58,14.49,61.81,61.81,0,0,1-10.16,13,56.09,56.09,0,0,1-13,9.44,35.89,35.89,0,0,1-15,4.2c-3.27-.84-5.46-1.75-6.59-2.73a35,35,0,0,0-3.57-2.72c-.75-.56-1.45-1-2.07-1.47s-1.19-.77-1.69-1.05L357,755l1.51-5.46q.75-3.36-.38-5.25a31,31,0,0,0-4.51-5.25l-2.26-2.52a16.46,16.46,0,0,1-1.88-2.52l-6.4-8,10.16-2.94q9.41-2.93,12.6-7.56T368.25,700q-7.53-1.68-12.61-.42t-10.34,2.94q-6.78,2.1-13.73,3.57a73.91,73.91,0,0,1-15.24,1.46c-2,0-3.89-.06-5.64-.21s-3.64-.34-5.64-.63l-3.77-.83q-.75-4.62-1.5-5.25a13.8,13.8,0,0,1-1.51-1.47,34.86,34.86,0,0,1-3.95-5.67q-2.07-3.57-.94-9a21.59,21.59,0,0,1-2.25-7.56,50.3,50.3,0,0,0-3.39,10.5l-1.5,4.2-3.77.84a2.81,2.81,0,0,0-1.12,1.89,9.53,9.53,0,0,0-.38,2.31l-1.88,7.14a15.86,15.86,0,0,1-1.51,1.47,15.68,15.68,0,0,0-1.5,1.46c-.51,2.52-1.13,5-1.88,7.56s-1.51,4.9-2.26,7.14q-1.89,5.46-3.2,10.71a32.19,32.19,0,0,0-.94,10.29l-1.5,4.62a16.53,16.53,0,0,1-4.14,4c-1.51,1-3,1.89-4.52,2.73a6.53,6.53,0,0,1-2.06,1.47c-.89.42-1.57.77-2.07,1l-1.13,4.61-4.52.84q-4.14.84-5.83,1.26a16.5,16.5,0,0,1-3.95.42l-3.76-.42q-4.14-3.78-6.4-6.08a36.69,36.69,0,0,0-5.26-4.41q-3.39-5-3.76-7.56c-.25-1.68-.5-3.22-.76-4.62a25.6,25.6,0,0,1-.94-4.2,4.35,4.35,0,0,0-.94-2.52l-4.89-5,4.14-3.78.38-7.14q7.53-21.4,16-41.15t17.5-40.31q3-6.72,5.83-13.44T261,609.32a10.29,10.29,0,0,1-.38-2.94,11.26,11.26,0,0,1,.76-3.78q4.13-7.12,6.77-12.8t5.26-11.55q3-7.14,6.21-13.86a104.1,104.1,0,0,1,8.09-13.86l6-2.94c.75-.27,1.63-.63,2.63-1.05a8.68,8.68,0,0,1,3.39-.63l5.64.84a57.18,57.18,0,0,0,18.44-15.32A213.67,213.67,0,0,0,340,507.7l3.76-5.88,4.9,3.36a20.09,20.09,0,0,0,5.26,2.31q3.39,1,7.15,2.31,6.76,1.68,12.79,3.78a23.12,23.12,0,0,1,9.78,6.3A54.73,54.73,0,0,1,386.31,530a60.37,60.37,0,0,0,1.12,6.72c.76,4.76,1.44,9.52,2.07,14.27s1.07,10.08,1.32,16q1.88,7.14,3.2,14.07t2.44,14.07q1.88,10.07,3.76,19.52a125.83,125.83,0,0,0,4.89,17.85,10,10,0,0,1,3.77.42,18.77,18.77,0,0,1,3.95-1.26c1.37-.28,2.94-.56,4.7-.84l4.14-.42,1.5,4.2c.25,1.4,1.51,2.8,3.76,4.2,3.26.28,5.65,1,7.15,2.31a40.22,40.22,0,0,1,4.14,4,12,12,0,0,0,3,2.52l5.64,2.52-3,6.29a55.48,55.48,0,0,1-10.72,14.49,66.16,66.16,0,0,1-15.61,11.55c.25,1.68.43,3.29.56,4.83a24,24,0,0,0,.94,4.83c.76,4.76,1.38,9.66,1.89,14.69a82.31,82.31,0,0,1,0,15.54ZM311.44,651.32q11.3-.84,20.5-1.89a197.75,197.75,0,0,0,20.51-3.57q-2.64-12.6-5.65-26.25t-6.39-27.08l-2.26,4.2a176,176,0,0,0-14.48,19.73A236.4,236.4,0,0,0,311.82,637l-4.52,7.56q-2.25,3.78-4.14,7.56a23.74,23.74,0,0,1,4.33-.42A18.12,18.12,0,0,0,311.44,651.32Z"/><path class="cls-3" d="M641.55,760.08a95.36,95.36,0,0,1-14.86-.42,29.57,29.57,0,0,0-16.36,2.93,231.63,231.63,0,0,1-40.63-5.45,263.79,263.79,0,0,1-38-11.34q-3.76-4.62-7.52-8.61A20.9,20.9,0,0,0,514,731.52,61.81,61.81,0,0,1,499.35,712a130.77,130.77,0,0,1-9-24.56,157.73,157.73,0,0,1-4.51-26.67,234.5,234.5,0,0,1-.75-26.24A101.29,101.29,0,0,1,501,602q10.35-13.63,21.26-27.08a25.63,25.63,0,0,0,7.34-5.25,46.37,46.37,0,0,1,5.26-5l5.64-4.62a25.19,25.19,0,0,0,5.08-5.67,43.9,43.9,0,0,0,13.74-6.09q5.82-4,11.47-8.39a139,139,0,0,1,11.66-8.19,50.23,50.23,0,0,1,13.92-5.88,24,24,0,0,1,7.15-6.09q4.14-2.31,8.46-4.62c2.88-1.53,5.65-3.15,8.28-4.83a17.93,17.93,0,0,0,6.21-6.72c1.25,2.25,3,3,5.26,2.31s4.39-1.47,6.4-2.31a3.34,3.34,0,0,1,3.2.84c.87.84,1.69,1.68,2.44,2.52a4.29,4.29,0,0,0,2.07,1.47c.62.15,1.19-.48,1.69-1.89,1.26,0,1.63.7,1.13,2.1s-.88,2.38-1.13,2.94a6,6,0,0,1,5.08,1.47c1.38,1.26,3.58,2,6.59,2.31q1.5,2.1.75,3.15a6.28,6.28,0,0,0-.75,3.57q11.28,3.78,14.29,12a26.28,26.28,0,0,1,.38,17,42.81,42.81,0,0,1-9.41,16.38q-6.76,7.56-14.67,10.08-18.06,5.46-34.05,12a63.72,63.72,0,0,0-26.14,19.1,61.58,61.58,0,0,0-16,7.77,102,102,0,0,0-13.17,10.92q-6.19,6.09-11.66,12.6t-11.47,12.81c.24,3.92-.32,6.92-1.7,9s-2.69,4.27-3.95,6.51a45.12,45.12,0,0,0,2.64,11.13q1.88,4.83,4.14,9.45a214.21,214.21,0,0,0,52.85,10.5q28,2.1,56.24,2.52a43.44,43.44,0,0,0,6.21,7.76,74.53,74.53,0,0,1,6.58,7.56,37.14,37.14,0,0,1,4.9,8.82q1.88,4.83.75,12a88.38,88.38,0,0,1-11.66,11.55Q647.95,754.62,641.55,760.08Z"/><path class="cls-4" d="M843.84,596.82a21.52,21.52,0,0,0,.44,6.2,51,51,0,0,0,1.63,5.78q1,2.84,1.86,5.8a43,43,0,0,1,1.31,5.92,38.78,38.78,0,0,1,0,8.21,55.06,55.06,0,0,1-1.53,8.62,36,36,0,0,1-2.84,7.54,13.1,13.1,0,0,1-4.15,5,23.1,23.1,0,0,1-7.43,7.54,43.09,43.09,0,0,0-8.08,6.46,14.84,14.84,0,0,1-5.35,2.69l-6,1.62c-1.6,1.08-3.5,2.2-5.68,3.37s-4.44,2.24-6.77,3.23a34.19,34.19,0,0,1-7,2.15,21.27,21.27,0,0,1-6.12.41,49.06,49.06,0,0,1-12.78,3.9A36.69,36.69,0,0,1,760.82,680a30.18,30.18,0,0,1-14.53-.81,31.66,31.66,0,0,1-11.8-6.87,47.16,47.16,0,0,1-9-11.31,73.43,73.43,0,0,1-6.23-13.86,87.69,87.69,0,0,1,.87-27.87,107.48,107.48,0,0,1,7.54-23.16A127.16,127.16,0,0,1,739,576.49q6.35-9,12.24-17.63a1.86,1.86,0,0,0,2.07-.14,6.75,6.75,0,0,0,1.42-1.88,22.65,22.65,0,0,1,1.42-2.29A3.21,3.21,0,0,1,758,553.2a12.39,12.39,0,0,1,4.48-6.06,14,14,0,0,0,4.7-5.79,8.79,8.79,0,0,0,3.27-1.61,23,23,0,0,0,2.52-2.43,35.65,35.65,0,0,1,2.51-2.56,8,8,0,0,1,3.06-1.75v-3a15.72,15.72,0,0,0,5.79-5c1.23-1.88,2.73-4.17,4.47-6.86a24.58,24.58,0,0,1,3.17-.27,18.27,18.27,0,0,0,3.61-.54,32.62,32.62,0,0,1,3.16-5.66,22.22,22.22,0,0,1,4.27-4,15.93,15.93,0,0,0,5.78,2.16,9.12,9.12,0,0,1,5.58,3.5,8,8,0,0,0,1.31,4.17,18.21,18.21,0,0,0,2.4,2.69c.87.81,1.71,1.66,2.51,2.56a7.6,7.6,0,0,1,1.64,3.77q.87.27,1.2-.27t1.2-.27a13.54,13.54,0,0,0,1.53,5,15.37,15.37,0,0,1,1.75,4.72,28.92,28.92,0,0,0-1.64,5.52,6,6,0,0,1-2.73,4.17c-.15,1.26.14,1.93.88,2s1.16.59,1.31,1.48a4.87,4.87,0,0,1-.66,3.5,194.71,194.71,0,0,1,9.39,22.22A196.39,196.39,0,0,0,843.84,596.82ZM816.53,622.4a15.14,15.14,0,0,1,2.29-4.84,10.31,10.31,0,0,0,1.64-5.66,13.49,13.49,0,0,1-1.31-3.37,25,25,0,0,1-.22-3.9,114.71,114.71,0,0,1-8.3-17.91,149.51,149.51,0,0,0-7.86-17.9,6.71,6.71,0,0,1-1.53,2.15c-.73.72-1.53.54-2.41-.54a5.36,5.36,0,0,1-1.53,3.1,3.06,3.06,0,0,1-2.4.81,8.43,8.43,0,0,1-2.73-.81,9.05,9.05,0,0,1-2.51-1.75Q783.32,578,777,583.9a72,72,0,0,0-11.36,13.73c-.59.36-1,.5-1.1.4s-.58.05-1.31.41a47.46,47.46,0,0,1-4.26,9.29q-2.51,4.17-4.91,8.48a60,60,0,0,0-4.15,9.16,36.71,36.71,0,0,0-2,11.31,15.49,15.49,0,0,0,8.74,4.57,39.86,39.86,0,0,0,10.38.27,80.68,80.68,0,0,0,10.48-1.75,41.42,41.42,0,0,1,9.51-1.21,55.67,55.67,0,0,0,15.73-7.14Q809.33,627,816.53,622.4Z"/><path class="cls-3" d="M877.52,705.14q4.56.65,6.7,2.85a13.77,13.77,0,0,1,3.2,5.64,27.51,27.51,0,0,1,1.15,7.58c0,2.75.21,5.51.46,8.29-4.44,4.92-10.94,7.79-19.58,9a258.45,258.45,0,0,1-27.52,2.22c-9.72.34-19.22.58-28.46.8a155.28,155.28,0,0,0-21.76,1.85c-10.92,1.82-19.31,3.55-25.17,5a81.67,81.67,0,0,0-11.92,3.55,37.26,37.26,0,0,1-9.43-.38,25.83,25.83,0,0,1-6.07-1.93,22.72,22.72,0,0,1-4.46-2.77,30.2,30.2,0,0,0-4.6-3,4,4,0,0,0-.39-3.89c-.83-1.47-2.36-2.28-4.58-2.34a5.33,5.33,0,0,0,3.1-3.09c.49-1.38.27-2.19-.67-2.37,3.08-1.71,6.45-3.41,10.13-5s7.33-3.2,11-4.69,7.07-3,10.36-4.54a43.94,43.94,0,0,0,8.34-5q15.29-5.62,31.72-11c10.94-3.6,21.21-6.72,30.78-9.48a48.34,48.34,0,0,0,12.5-.77,92.51,92.51,0,0,1,13.84-1.44A25.2,25.2,0,0,1,868.73,693Q874.54,696.08,877.52,705.14Z"/><path class="cls-3" d="M982.23,670.7q.71,3.38,1.06,6.3t.7,6.3q-2.12,8.82-4.56,16c-.7,2-1.17,3.22-1.4,3.78a3.54,3.54,0,0,0-.35,1.26,2.22,2.22,0,0,0,.35,1.05,10.27,10.27,0,0,1,.35,3.57l-1.75,5a15.64,15.64,0,0,1-4,4.62,35,35,0,0,1-4.73,2.94,14.11,14.11,0,0,1-2.28,1.47,6.09,6.09,0,0,0-1.93,1.46l-1,5-4.9.84A35.89,35.89,0,0,1,947.53,732h-3.86q-4.2-4.62-6.66-7.14a33.81,33.81,0,0,0-5.61-4.61,45.06,45.06,0,0,1-4.55-13.86q-.71-5.46-1.75-7.14l-4.91-5.88,4.2-3.78-4.2-8c2.8-2.52,4.91-4.33,6.31-5.46a25,25,0,0,0,3.68-3.57,38,38,0,0,0,3.33-4.82q1.74-2.94,5.61-9.66l3.15-5.46,4.21,2.94q1.75,1.26,6.48,2.31c3.16.7,5.9,1.33,8.24,1.89a68.72,68.72,0,0,0,11,3.15,15.41,15.41,0,0,1,8.59,4.41Zm34.71-238.93a60.49,60.49,0,0,1-.88,9.24q-.88,5.46-1.58,10.92a48.07,48.07,0,0,0-.35,9.86q.35,4.41,3.16,5.67a312.2,312.2,0,0,0-8.59,37.38q-2.28,15.1-3.86,28.76t-4,28.77a324.76,324.76,0,0,1-8.76,37q-3.87,13.44-9.47,18.68c-3.74,3.51-7.71,5.25-11.91,5.25a24.19,24.19,0,0,1-13-4.2,88.62,88.62,0,0,1-12.27-9.23,97.11,97.11,0,0,1-.18-19.53q.87-11.55,2.28-24.15t2.8-24.14q1.41-11.55,2.11-19.53a47,47,0,0,0,4.91-7.56,22.66,22.66,0,0,0,1.92-6.29q.53-3.36.88-8.4t1.75-14.28a17.18,17.18,0,0,0-.52-8.19,12.75,12.75,0,0,1-.53-6.93,5,5,0,0,1,2.28-2.52,3.81,3.81,0,0,0,1.93-2.94c.93-3.63,1.16-6.51.7-8.61s-.12-4.68,1-7.76a92.17,92.17,0,0,0,4.38-10.71A35.71,35.71,0,0,0,973.12,423a49,49,0,0,0,6-6.72,75.19,75.19,0,0,1,5.78-6.93,29.15,29.15,0,0,1,6.66-5.25,17.91,17.91,0,0,1,8.94-2.1,44.85,44.85,0,0,1,4.21,8.82c.93,2.81,1.81,5.46,2.63,8a31.8,31.8,0,0,0,3.33,7.14A18.29,18.29,0,0,0,1016.94,431.77Z"/><path class="cls-5" d="M1039.79,286.44q.7,3.36,1.06,6.3t.7,6.3q-2.11,8.82-4.56,15.95c-.7,2-1.17,3.23-1.4,3.78a3.65,3.65,0,0,0-.35,1.26,2.18,2.18,0,0,0,.35,1.05,10.31,10.31,0,0,1,.35,3.57l-1.75,5a15.51,15.51,0,0,1-4,4.62,35,35,0,0,1-4.73,2.94,13.46,13.46,0,0,1-2.28,1.47,6,6,0,0,0-1.92,1.47l-1.06,5-4.9.84a36.2,36.2,0,0,1-10.17,1.68h-3.86c-2.8-3.09-5-5.46-6.66-7.14A34.19,34.19,0,0,0,989,336a44.68,44.68,0,0,1-4.56-13.86q-.7-5.44-1.75-7.14l-4.91-5.87,4.2-3.78-4.2-8c2.8-2.52,4.91-4.34,6.31-5.46a25.51,25.51,0,0,0,3.68-3.57,38.23,38.23,0,0,0,3.33-4.83c1.17-1.95,3-5.18,5.61-9.66l3.15-5.46,4.21,2.94a19,19,0,0,0,6.48,2.31c3.16.7,5.9,1.33,8.24,1.89a66.72,66.72,0,0,0,11,3.15,15.41,15.41,0,0,1,8.59,4.41ZM1074.5,47.5a60.38,60.38,0,0,1-.88,9.24c-.58,3.64-1.11,7.29-1.58,10.92a48.17,48.17,0,0,0-.35,9.87c.23,2.94,1.29,4.83,3.16,5.67a312.1,312.1,0,0,0-8.59,37.37q-2.28,15.12-3.86,28.77t-4,28.76a322.13,322.13,0,0,1-8.76,37q-3.85,13.45-9.47,18.69T1028.23,239a24.27,24.27,0,0,1-13-4.2,89.47,89.47,0,0,1-12.27-9.24,97,97,0,0,1-.18-19.52q.87-11.55,2.28-24.15t2.8-24.15q1.41-11.53,2.11-19.52a47.88,47.88,0,0,0,4.91-7.56,22.83,22.83,0,0,0,1.92-6.3q.52-3.36.88-8.4c.23-3.36.82-8.11,1.75-14.28a17.15,17.15,0,0,0-.52-8.18,12.85,12.85,0,0,1-.53-6.93,4.93,4.93,0,0,1,2.28-2.52,3.83,3.83,0,0,0,1.93-2.94q1.39-5.46.7-8.61c-.47-2.1-.12-4.68,1-7.77A92.17,92.17,0,0,0,1028.75,54a35.49,35.49,0,0,0,1.93-15.32,49.55,49.55,0,0,0,6-6.72,76.82,76.82,0,0,1,5.78-6.93,28.88,28.88,0,0,1,6.66-5.25,17.81,17.81,0,0,1,8.94-2.1,44.33,44.33,0,0,1,4.21,8.82q1.39,4.2,2.63,8a31.8,31.8,0,0,0,3.33,7.14A18.17,18.17,0,0,0,1074.5,47.5Z"/></svg>
